<?xml version="1.0" encoding="UTF-8" standalone="no"?><!DOCTYPE svg PUBLIC "-//W3C//DTD SVG 1.1//EN" "http://www.w3.org/Graphics/SVG/1.1/DTD/svg11.dtd"><svg width="100%" height="100%" viewBox="0 0 408 237" version="1.1" xmlns="http://www.w3.org/2000/svg" xmlns:xlink="http://www.w3.org/1999/xlink" xml:space="preserve" xmlns:serif="http://www.serif.com/" style="fill-rule:evenodd;clip-rule:evenodd;stroke-linejoin:round;stroke-miterlimit:2;"><path d="M197.292,31.875l-38.125,67.708c-6.875,-8.541 -11.25,-19.375 -11.25,-31.458c-0,-27.292 22.291,-49.583 49.583,-49.583c13.75,-0 26.25,5.625 35.208,14.791l13.125,-13.125c-12.291,-12.5 -29.375,-20.208 -48.333,-20.208c-37.5,-0 -68.125,30.625 -68.125,68.125c-0,18.958 7.917,36.042 20.208,48.333l0,0.209l-23.75,42.291l21.459,0l17.291,-31.25l2.292,1.25c9.167,4.792 19.583,7.292 30.625,7.292c11.875,0 22.708,-3.125 32.5,-8.125l17.292,31.042l21.458,-0l-23.75,-42.292l-9.583,-16.875l-38.125,-68.125Zm0.416,85.833c-8.541,0 -16.458,-2.083 -23.541,-6.041l-0.209,-0.209l23.542,-42.5l23.542,42.709c-7.084,3.75 -14.792,6.041 -23.334,6.041Zm-182.083,88.959c-1.667,1.666 -3.958,2.5 -6.458,2.5c-6.459,-0 -9.167,-4.167 -9.167,-8.75c-0,-4.375 2.917,-8.959 9.167,-8.959c2.291,0 4.583,0.834 6.25,2.709l-2.292,2.291c-1.042,-1.041 -2.5,-1.458 -3.958,-1.458c-3.959,0 -5.417,2.917 -5.417,5.417c-0,2.5 1.458,5.416 5.417,5.416c1.458,0 3.125,-0.625 4.166,-1.666l2.292,2.5m15.833,2.083l0,-6.667l-7.708,0l-0,6.667l-3.75,0l-0,-17.083l3.75,-0l-0,6.875l7.708,-0l0,-6.875l3.75,-0l0,17.083l-3.75,0m17.292,-13.125l-2.917,6.875l5.834,0l-2.917,-6.875m4.375,10.208l-8.75,0l-1.25,2.917l-4.167,0l7.709,-17.083l4.166,-0l7.709,17.083l-4.167,0l-1.25,-2.917Zm13.125,-10.833l-0,5l4.375,0c1.667,0 2.5,-1.25 2.5,-2.292c-0,-1.25 -0.833,-2.5 -2.5,-2.5l-4.375,0m11.25,13.542l-4.167,0l-4.375,-5.625l-2.708,0l-0,5.625l-3.75,0l-0,-17.083l8.125,-0c4.167,-0 6.25,2.708 6.25,5.833c-0,2.292 -0.625,4.167 -3.958,5.417l4.583,5.833Zm8.125,-13.75l-5.208,0l-0,-3.333l14.166,-0l0,3.333l-5.208,0l-0,13.75l-3.75,0l-0,-13.75m26.25,13.75l-12.917,0l0,-17.083l12.709,-0l-0,3.541l-8.959,0l0,3.334l8.334,-0l-0,3.333l-8.334,0l0,3.542l9.167,-0l-0,3.333m8.958,-13.75l0,5l4.375,0c1.667,0 2.5,-1.25 2.5,-2.292c0,-1.25 -0.833,-2.5 -2.5,-2.5l-4.375,0m11.25,13.542l-4.166,0l-4.375,-5.625l-2.709,0l0,5.625l-3.75,0l0,-17.083l8.125,-0c4.167,-0 6.25,2.708 6.25,5.833c0,2.292 -0.625,4.167 -3.958,5.417l4.583,5.833c0,-0.208 0,0 0,0Zm17.5,0l-12.916,0l-0,-17.083l12.708,-0l-0,3.541l-8.958,0l-0,3.334l8.333,-0l-0,3.333l-8.333,0l-0,3.542l9.166,-0l0,3.333m8.959,-3.542l3.333,0c3.75,0 4.792,-2.708 4.792,-5.208c-0,-2.5 -1.25,-5 -4.792,-5l-3.333,0l-0,10.208m3.125,-13.541c5.833,-0 8.541,3.958 8.541,8.333c0,4.375 -2.5,8.75 -8.541,8.75l-7.084,0l0,-17.083l7.084,-0Zm28.333,3.958l-2.917,6.875l5.834,0l-2.917,-6.875m4.375,10.208l-8.75,0l-1.25,2.917l-4.167,0l7.709,-17.083l4.166,-0l7.709,17.083l-4.167,0l-1.25,-2.917Zm23.125,0.834c-1.667,1.666 -3.958,2.5 -6.458,2.5c-6.459,-0 -9.167,-4.167 -9.167,-8.75c-0,-4.375 2.917,-8.959 9.167,-8.959c2.291,0 4.583,0.834 6.25,2.709l-2.292,2.291c-1.042,-1.041 -2.5,-1.458 -3.958,-1.458c-3.959,0 -5.417,2.917 -5.417,5.417c-0,2.5 1.458,5.416 5.417,5.416c1.458,0 3.125,-0.625 4.166,-1.666l2.292,2.5m18.542,-0c-1.667,1.666 -3.959,2.5 -6.459,2.5c-6.458,-0 -9.166,-4.167 -9.166,-8.75c-0,-4.375 2.916,-8.959 9.166,-8.959c2.292,0 4.584,0.834 6.25,2.709l-2.291,2.291c-1.042,-1.041 -2.5,-1.458 -3.959,-1.458c-3.958,0 -5.416,2.917 -5.416,5.417c-0,2.5 1.458,5.416 5.416,5.416c1.459,0 3.125,-0.625 4.167,-1.666l2.292,2.5m12.291,-11.875c-3.333,-0 -5.416,2.5 -5.416,5.625c-0,3.125 2.291,5.416 5.416,5.416c3.334,0 5.417,-2.291 5.417,-5.416c-0,-3.334 -2.292,-5.625 -5.417,-5.625m0,14.375c-5.416,-0 -9.166,-3.334 -9.166,-8.959c-0,-5.625 3.75,-8.958 9.166,-8.958c5.417,0 9.167,3.333 9.167,8.958c-0,5.625 -3.75,8.959 -9.167,8.959Zm29.375,-17.5l0,9.583c0,5 -2.916,7.708 -7.291,7.917c-4.375,0.208 -8.334,-2.5 -8.334,-7.917l0,-9.583l3.75,-0l0,9.583c0,3.125 1.667,4.583 4.584,4.583c2.5,-0.208 3.541,-1.875 3.541,-4.583l0,-9.583l3.75,-0m17.5,11.041l-0.416,-5.208l-0,-5.833l3.958,-0l-0,17.083l-3.333,0l-8.542,-10.833l0.208,5.625l0,5.208l-3.75,0l0,-17.083l3.125,-0l8.75,11.041m13.125,-7.708l-5.208,0l-0,-3.333l14.167,-0l-0,3.333l-5.209,0l0,13.75l-3.75,0l0,-13.75m19.584,0.625l-2.917,6.875l5.833,0l-2.916,-6.875m4.166,10.208l-8.75,0l-1.25,2.917l-4.166,0l7.708,-17.083l4.167,-0l7.708,17.083l-4.167,0l-1.25,-2.917Zm21.25,-3.125l-0.208,-5.208l-0,-5.833l3.75,-0l-0,17.083l-3.333,0l-8.334,-10.833l0,10.833l-3.75,0l0,-17.083l3.125,-0l8.75,11.041m13.125,-7.708l-5.208,0l-0,-3.333l14.167,-0l-0,3.333l-5.209,0l0,13.75l-3.75,0l0,-13.75m23.334,0.833c-1.042,-1.041 -2.709,-1.458 -3.959,-1.458c-1.666,0 -3.125,0.625 -3.125,1.875c0,1.458 1.459,1.875 3.75,2.083c3.334,0.209 6.459,1.667 6.459,5.625c-0,3.75 -3.542,5.417 -7.292,5.417c-2.917,0 -6.042,-1.042 -7.5,-3.542l2.292,-2.291c1.25,1.666 3.541,2.5 5.208,2.5c2.083,-0 3.333,-0.834 3.333,-2.084c0,-1.458 -1.041,-2.083 -3.541,-2.291c-3.542,-0.417 -6.875,-1.25 -6.667,-5.209c-0,-3.333 3.333,-5.208 6.667,-5.208c2.708,0 4.583,0.625 6.458,2.708l-2.083,1.875m-323.542,30.209l-2.5,5.625l5,-0l-2.5,-5.625m3.125,7.5l-6.458,-0l-1.042,2.5l-2.083,-0l5.416,-12.084l2.084,0l5.416,12.084l-2.083,-0l-1.25,-2.5Zm15.625,-9.584l-0,7.084c-0,3.541 -2.292,5.208 -5.208,5.208c-2.709,0 -5,-1.875 -5,-5.208l-0,-7.084l1.875,0l-0,7.084c-0,2.083 1.25,3.333 3.125,3.333c1.875,0 3.333,-1.25 3.333,-3.333l-0,-7.084l1.875,0m11.25,2.709c-0.625,-0.834 -1.667,-1.25 -2.917,-1.25c-1.666,-0 -2.708,0.625 -2.708,1.875c-0,1.25 1.25,1.458 2.917,1.666c2.5,0.417 4.791,1.042 4.791,3.75c0,2.709 -2.5,3.75 -5,3.75c-2.291,0 -4.166,-0.625 -5.208,-2.708l1.458,-1.042c0.834,1.459 2.292,1.875 3.75,1.875c1.459,0 3.125,-0.416 3.125,-2.083c0,-1.25 -1.458,-1.667 -3.125,-1.875c-2.291,-0.417 -4.583,-0.833 -4.583,-3.542c-0,-2.5 2.5,-3.541 4.583,-3.541c1.667,-0 3.542,0.416 4.584,2.083l-1.667,1.042m7.917,-1.042l-3.959,0l0,-1.667l9.792,0l-0,1.667l-3.958,0l-0,10.208l-1.875,0l-0,-10.208m10.625,0l-0,4.375l3.75,0c1.666,0 2.291,-1.042 2.291,-2.083c0,-1.042 -0.625,-2.292 -2.291,-2.292l-3.75,0m8.541,10.417l-2.291,-0l-3.75,-4.167l-2.5,0l-0,4.167l-1.875,-0l-0,-12.084l5.625,0c2.708,0 4.166,1.875 4.166,3.959c0,1.666 -0.833,3.333 -3.333,3.75l3.542,3.958l0.416,0.417Zm8.125,-10l-2.5,5.625l5,-0l-2.5,-5.625m3.334,7.5l-6.459,-0l-1.041,2.5l-2.084,-0l5.417,-12.084l2.083,0l5.417,12.084l-2.083,-0l-1.25,-2.5Zm7.916,-9.584l0,10.209l6.25,-0l0,1.875l-8.125,-0l0,-12.084l1.875,0m9.375,0l1.875,0l0,12.084l-1.875,-0l0,-12.084Zm11.042,2.084l-2.5,5.625l5,-0l-2.5,-5.625m3.333,7.5l-6.458,-0l-1.042,2.5l-2.083,-0l5.417,-12.084l2.083,0l5.417,12.084l-2.084,-0l-1.25,-2.5Zm12.709,-4.375l-0,-2.709l1.666,0l0,2.709l2.709,-0l-0,1.666l-2.709,0l0,2.709l-1.666,-0l-0,-2.709l-2.709,0l0,-1.666l2.709,-0m21.458,3.333l-0,-8.542l1.875,0l-0,12.084l-1.458,-0l-6.667,-8.542l-0,8.542l-2.083,-0l-0,-12.084l1.458,0l6.875,8.542m15,3.542l-8.958,-0l-0,-12.084l8.75,0l-0,1.875l-6.667,0l-0,3.334l6.667,-0l-0,1.875l-6.667,-0l-0,3.333l6.875,0l-0,1.667m15.833,-0l-1.666,-0l-1.459,-4.375l-1.458,-3.959l-1.25,3.959l-1.667,4.375l-1.666,-0l-4.375,-12.084l2.291,0l2.917,9.167l3.125,-9.167l1.25,0l3.125,9.167l3.125,-9.167l2.083,0l-4.375,12.084m11.667,-12.084l8.75,0l-0,0.834l-6.458,9.375l6.458,-0l-0,1.875l-9.167,-0l0,-1.25l6.459,-9.167l-6.042,0l-0,-1.667m21.042,12.084l-8.959,-0l0,-12.084l8.75,0l0,1.875l-6.875,0l0,3.334l6.667,-0l-0,1.875l-6.667,-0l0,3.333l6.875,0l0,1.667m8.959,-10l-2.5,5.625l5,-0l-2.5,-5.625m3.125,7.5l-6.459,-0l-1.041,2.5l-2.084,-0l5.417,-12.084l2.083,0l5.417,12.084l-2.083,-0l-1.25,-2.5Zm7.916,-9.584l0,10.209l6.459,-0l-0,1.875l-8.334,-0l0,-12.084l1.875,0m14.375,2.084l-2.5,5.625l5,-0l-2.5,-5.625m3.334,7.5l-6.459,-0l-1.041,2.5l-2.084,-0l5.417,-12.084l2.083,0l5.417,12.084l-2.083,-0l-1.25,-2.5Zm14.166,-1.042l0,-8.542l2.084,0l-0,12.084l-1.667,-0l-6.667,-8.542l0,8.542l-2.083,-0l-0,-12.084l1.667,0l6.666,8.542m8.125,1.667l2.709,-0c2.916,-0 4.166,-2.084 4.166,-4.375c0,-2.084 -1.25,-3.959 -4.166,-3.959l-2.709,0l0,8.334m2.5,-10.209c4.167,0 6.042,2.917 6.042,5.834c0,3.125 -1.875,6.041 -6.042,6.041l-4.583,0l0,-11.875l4.583,0Zm76.25,-32.083l1.875,2.708l1.875,-2.708l1.25,0l0,6.25l-1.041,0l-0,-4.167l-1.875,2.709l-0.209,-0l-1.875,-2.709l0,4.167l-1.458,0l0,-6.25l1.458,0m-7.708,1.25l0,-1.25l5.417,0l-0,1.25l-2.084,0l0,5l-1.458,0l0,-5l-1.875,0Z" style="fill:#fff;fill-rule:nonzero;"/></svg>