<?xml version="1.0" encoding="UTF-8" standalone="no"?>
<!DOCTYPE svg PUBLIC "-//W3C//DTD SVG 1.1//EN" "http://www.w3.org/Graphics/SVG/1.1/DTD/svg11.dtd">
<svg width="100%" height="100%" viewBox="0 0 1480 594" version="1.1" xmlns="http://www.w3.org/2000/svg" xmlns:xlink="http://www.w3.org/1999/xlink" xml:space="preserve" xmlns:serif="http://www.serif.com/" style="fill-rule:evenodd;clip-rule:evenodd;stroke-linejoin:round;stroke-miterlimit:2;">
    <g transform="matrix(1,0,0,1,-469.755,-263.536)">
        <g transform="matrix(5.18763e-17,0.847204,-2.06477,1.26431e-16,1845.96,-117.111)">
            <path d="M943.764,661.039L484.54,663.659L573.542,55.893L782.43,56.65L943.764,661.039Z" style="fill:url(#_Linear1);"/>
        </g>
        <g transform="matrix(4.59102,0,0,5.45295,-856.463,-3658.49)">
            <g transform="matrix(84.281,0,0,70.9589,283.156,791.935)">
                <path d="M0.396,-0L0.149,-0.589L0.146,-0.589L0.146,-0L0.081,-0L0.081,-0.708L0.168,-0.708L0.413,-0.119L0.416,-0.119L0.416,-0.708L0.48,-0.708L0.48,-0L0.396,-0Z" style="fill:white;fill-rule:nonzero;"/>
            </g>
            <g transform="matrix(84.281,0,0,70.9589,323.695,791.935)">
                <path d="M0.393,-0.247C0.393,-0.208 0.389,-0.172 0.381,-0.14C0.373,-0.108 0.362,-0.08 0.347,-0.057C0.332,-0.034 0.314,-0.016 0.293,-0.003C0.271,0.01 0.247,0.016 0.22,0.016C0.193,0.016 0.169,0.01 0.148,-0.003C0.127,-0.016 0.109,-0.034 0.094,-0.057C0.079,-0.08 0.067,-0.108 0.059,-0.14C0.051,-0.172 0.047,-0.208 0.047,-0.247C0.047,-0.286 0.051,-0.322 0.059,-0.355C0.066,-0.388 0.077,-0.416 0.092,-0.439C0.107,-0.462 0.125,-0.48 0.147,-0.493C0.168,-0.506 0.193,-0.512 0.22,-0.512C0.247,-0.512 0.271,-0.506 0.293,-0.493C0.314,-0.48 0.332,-0.462 0.347,-0.439C0.362,-0.416 0.373,-0.388 0.381,-0.355C0.389,-0.322 0.393,-0.286 0.393,-0.247ZM0.325,-0.248C0.325,-0.277 0.323,-0.305 0.319,-0.33C0.314,-0.355 0.308,-0.377 0.299,-0.396C0.29,-0.414 0.28,-0.428 0.267,-0.439C0.254,-0.45 0.238,-0.455 0.22,-0.455C0.202,-0.455 0.186,-0.45 0.173,-0.439C0.16,-0.428 0.149,-0.414 0.141,-0.396C0.132,-0.377 0.126,-0.355 0.122,-0.33C0.117,-0.305 0.115,-0.277 0.115,-0.248C0.115,-0.219 0.117,-0.192 0.122,-0.167C0.126,-0.142 0.132,-0.121 0.141,-0.102C0.149,-0.083 0.16,-0.069 0.173,-0.059C0.186,-0.048 0.202,-0.043 0.22,-0.043C0.238,-0.043 0.254,-0.048 0.267,-0.059C0.28,-0.069 0.291,-0.083 0.3,-0.102C0.308,-0.121 0.314,-0.142 0.319,-0.167C0.323,-0.192 0.325,-0.219 0.325,-0.248Z" style="fill:white;fill-rule:nonzero;"/>
            </g>
            <g transform="matrix(84.281,0,0,70.9589,356.565,791.935)">
                <path d="M0.147,-0.388C0.156,-0.431 0.171,-0.463 0.19,-0.482C0.209,-0.501 0.231,-0.511 0.256,-0.511C0.261,-0.511 0.265,-0.511 0.268,-0.51L0.266,-0.442C0.263,-0.443 0.261,-0.443 0.259,-0.444C0.256,-0.444 0.253,-0.444 0.25,-0.444C0.233,-0.444 0.219,-0.438 0.206,-0.427C0.193,-0.416 0.182,-0.401 0.173,-0.383C0.164,-0.365 0.158,-0.345 0.154,-0.322C0.149,-0.299 0.147,-0.276 0.147,-0.253L0.147,-0L0.081,-0L0.081,-0.371C0.081,-0.382 0.081,-0.393 0.081,-0.406C0.08,-0.418 0.08,-0.43 0.08,-0.442C0.079,-0.453 0.079,-0.464 0.079,-0.474C0.078,-0.483 0.078,-0.491 0.077,-0.496L0.141,-0.496C0.142,-0.483 0.143,-0.468 0.144,-0.449C0.145,-0.43 0.145,-0.409 0.145,-0.388L0.147,-0.388Z" style="fill:white;fill-rule:nonzero;"/>
            </g>
            <g transform="matrix(84.281,0,0,70.9589,379.658,791.935)">
                <path d="M0.238,-0C0.231,0.003 0.222,0.006 0.211,0.009C0.2,0.012 0.189,0.013 0.178,0.013C0.143,0.013 0.119,0.001 0.105,-0.023C0.09,-0.047 0.083,-0.079 0.083,-0.119L0.083,-0.442L0.018,-0.442L0.018,-0.496L0.082,-0.496L0.082,-0.633L0.147,-0.633L0.147,-0.496L0.235,-0.496L0.235,-0.442L0.147,-0.442L0.147,-0.131C0.147,-0.101 0.151,-0.079 0.16,-0.066C0.169,-0.052 0.182,-0.045 0.199,-0.045C0.205,-0.045 0.211,-0.046 0.218,-0.048C0.225,-0.049 0.23,-0.051 0.235,-0.053L0.238,-0Z" style="fill:white;fill-rule:nonzero;"/>
            </g>
            <g transform="matrix(84.281,0,0,70.9589,398.2,791.935)">
                <path d="M0.327,-0L0.327,-0.32C0.327,-0.335 0.326,-0.351 0.325,-0.367C0.323,-0.382 0.319,-0.397 0.314,-0.41C0.309,-0.423 0.301,-0.433 0.291,-0.442C0.28,-0.45 0.267,-0.454 0.25,-0.454C0.233,-0.454 0.219,-0.45 0.206,-0.441C0.193,-0.432 0.181,-0.419 0.172,-0.404C0.163,-0.388 0.156,-0.37 0.151,-0.35C0.146,-0.329 0.143,-0.308 0.143,-0.286L0.143,-0L0.077,-0L0.077,-0.756L0.143,-0.756L0.143,-0.402L0.145,-0.402C0.154,-0.434 0.169,-0.46 0.19,-0.481C0.211,-0.502 0.238,-0.512 0.27,-0.512C0.297,-0.512 0.318,-0.506 0.335,-0.495C0.351,-0.484 0.363,-0.469 0.372,-0.451C0.381,-0.432 0.387,-0.411 0.39,-0.389C0.393,-0.366 0.394,-0.343 0.394,-0.32L0.394,-0L0.327,-0Z" style="fill:white;fill-rule:nonzero;"/>
            </g>
            <g transform="matrix(84.281,0,0,70.9589,430.817,791.935)">
                <rect x="0.077" y="-0.756" width="0.066" height="0.756" style="fill:white;fill-rule:nonzero;"/>
            </g>
            <g transform="matrix(84.281,0,0,70.9589,443.88,791.935)">
                <path d="M0.285,-0C0.284,-0.005 0.284,-0.012 0.284,-0.02C0.283,-0.028 0.283,-0.037 0.283,-0.046C0.282,-0.055 0.282,-0.063 0.282,-0.072L0.282,-0.093L0.28,-0.093C0.263,-0.022 0.223,0.013 0.16,0.013C0.146,0.013 0.132,0.01 0.118,0.005C0.104,-0 0.091,-0.009 0.08,-0.021C0.069,-0.033 0.059,-0.048 0.052,-0.067C0.045,-0.085 0.041,-0.107 0.041,-0.133C0.041,-0.169 0.047,-0.198 0.06,-0.22C0.073,-0.242 0.089,-0.259 0.108,-0.272C0.127,-0.285 0.149,-0.293 0.172,-0.298C0.195,-0.302 0.216,-0.304 0.237,-0.304L0.276,-0.304L0.276,-0.33C0.276,-0.373 0.268,-0.405 0.252,-0.425C0.236,-0.445 0.214,-0.455 0.187,-0.455C0.168,-0.455 0.151,-0.45 0.135,-0.44C0.119,-0.43 0.105,-0.417 0.094,-0.402L0.059,-0.443C0.074,-0.465 0.094,-0.482 0.119,-0.494C0.144,-0.506 0.168,-0.512 0.193,-0.512C0.245,-0.512 0.282,-0.495 0.304,-0.461C0.326,-0.427 0.337,-0.377 0.337,-0.312L0.337,-0.106C0.337,-0.099 0.337,-0.091 0.338,-0.081C0.338,-0.071 0.338,-0.061 0.339,-0.051C0.339,-0.04 0.339,-0.031 0.34,-0.022C0.341,-0.013 0.341,-0.005 0.342,-0L0.285,-0ZM0.277,-0.252L0.237,-0.252C0.221,-0.252 0.205,-0.251 0.189,-0.248C0.173,-0.245 0.159,-0.239 0.147,-0.231C0.134,-0.222 0.124,-0.211 0.116,-0.196C0.108,-0.181 0.104,-0.162 0.104,-0.139C0.104,-0.104 0.112,-0.079 0.127,-0.064C0.142,-0.049 0.159,-0.041 0.177,-0.041C0.196,-0.041 0.212,-0.047 0.225,-0.058C0.238,-0.069 0.248,-0.084 0.256,-0.101C0.263,-0.118 0.269,-0.137 0.272,-0.158C0.275,-0.179 0.277,-0.199 0.277,-0.218L0.277,-0.252Z" style="fill:white;fill-rule:nonzero;"/>
            </g>
            <g transform="matrix(84.281,0,0,70.9589,471.187,791.935)">
                <path d="M0.331,-0L0.331,-0.32C0.331,-0.335 0.33,-0.351 0.329,-0.367C0.327,-0.382 0.323,-0.397 0.318,-0.41C0.312,-0.423 0.304,-0.433 0.294,-0.442C0.283,-0.45 0.27,-0.454 0.253,-0.454C0.236,-0.454 0.222,-0.45 0.209,-0.441C0.196,-0.432 0.185,-0.419 0.176,-0.404C0.167,-0.388 0.16,-0.37 0.155,-0.35C0.15,-0.329 0.147,-0.308 0.147,-0.286L0.147,-0L0.081,-0L0.081,-0.371C0.081,-0.382 0.081,-0.393 0.081,-0.406C0.08,-0.418 0.08,-0.43 0.08,-0.442C0.079,-0.453 0.079,-0.464 0.079,-0.474C0.078,-0.483 0.078,-0.491 0.077,-0.496L0.141,-0.496C0.142,-0.483 0.143,-0.468 0.144,-0.45C0.145,-0.432 0.145,-0.415 0.145,-0.399L0.147,-0.399C0.156,-0.432 0.172,-0.46 0.193,-0.481C0.214,-0.501 0.241,-0.512 0.273,-0.512C0.3,-0.512 0.321,-0.506 0.338,-0.495C0.354,-0.484 0.366,-0.469 0.375,-0.451C0.384,-0.432 0.39,-0.411 0.393,-0.389C0.396,-0.366 0.397,-0.343 0.397,-0.32L0.397,-0L0.331,-0Z" style="fill:white;fill-rule:nonzero;"/>
            </g>
            <g transform="matrix(84.281,0,0,70.9589,504.9,791.935)">
                <path d="M0.325,-0L0.325,-0.089L0.323,-0.089C0.315,-0.059 0.302,-0.034 0.283,-0.014C0.264,0.006 0.238,0.016 0.204,0.016C0.179,0.016 0.156,0.009 0.137,-0.004C0.118,-0.017 0.101,-0.036 0.088,-0.06C0.075,-0.083 0.065,-0.111 0.058,-0.144C0.05,-0.176 0.047,-0.211 0.047,-0.25C0.047,-0.289 0.05,-0.324 0.057,-0.356C0.064,-0.388 0.074,-0.416 0.087,-0.439C0.099,-0.462 0.116,-0.48 0.136,-0.493C0.155,-0.505 0.178,-0.512 0.203,-0.512C0.233,-0.512 0.258,-0.503 0.279,-0.485C0.3,-0.466 0.314,-0.442 0.321,-0.412L0.323,-0.412L0.323,-0.756L0.389,-0.756L0.389,-0L0.325,-0ZM0.325,-0.248C0.325,-0.277 0.323,-0.305 0.319,-0.33C0.314,-0.355 0.308,-0.377 0.299,-0.396C0.29,-0.414 0.278,-0.428 0.265,-0.439C0.252,-0.45 0.236,-0.455 0.219,-0.455C0.201,-0.455 0.186,-0.45 0.173,-0.439C0.16,-0.428 0.149,-0.414 0.14,-0.396C0.131,-0.377 0.125,-0.355 0.121,-0.33C0.117,-0.305 0.115,-0.277 0.115,-0.248C0.115,-0.219 0.117,-0.193 0.121,-0.168C0.125,-0.142 0.131,-0.121 0.14,-0.102C0.149,-0.083 0.16,-0.069 0.173,-0.058C0.186,-0.047 0.201,-0.042 0.219,-0.042C0.237,-0.042 0.253,-0.047 0.266,-0.058C0.279,-0.069 0.29,-0.083 0.299,-0.102C0.308,-0.121 0.314,-0.142 0.319,-0.168C0.323,-0.193 0.325,-0.219 0.325,-0.248Z" style="fill:white;fill-rule:nonzero;"/>
            </g>
        </g>
        <g transform="matrix(4.35679,0,0,4.35679,-1478.76,-2973.66)">
            <g transform="matrix(17.2145,0,0,17.2145,446.531,848.352)">
                <path d="M0.483,-0.076C0.464,-0.048 0.441,-0.025 0.412,-0.008C0.383,0.009 0.346,0.018 0.302,0.018C0.262,0.018 0.226,0.009 0.194,-0.01C0.161,-0.029 0.134,-0.055 0.112,-0.088C0.089,-0.121 0.072,-0.16 0.06,-0.205C0.047,-0.25 0.041,-0.3 0.041,-0.354C0.041,-0.408 0.047,-0.458 0.06,-0.504C0.072,-0.549 0.089,-0.589 0.112,-0.622C0.135,-0.655 0.162,-0.68 0.195,-0.699C0.227,-0.717 0.263,-0.726 0.302,-0.726C0.343,-0.726 0.378,-0.719 0.409,-0.704C0.44,-0.689 0.465,-0.667 0.484,-0.639L0.415,-0.555C0.388,-0.594 0.352,-0.614 0.309,-0.614C0.285,-0.614 0.264,-0.607 0.246,-0.594C0.228,-0.58 0.213,-0.561 0.201,-0.538C0.189,-0.515 0.18,-0.487 0.174,-0.456C0.168,-0.424 0.165,-0.39 0.165,-0.354C0.165,-0.319 0.168,-0.285 0.174,-0.254C0.18,-0.222 0.189,-0.194 0.201,-0.171C0.213,-0.148 0.228,-0.129 0.247,-0.116C0.265,-0.102 0.286,-0.095 0.311,-0.095C0.334,-0.095 0.355,-0.101 0.372,-0.113C0.389,-0.125 0.403,-0.14 0.414,-0.157L0.483,-0.076Z" style="fill:white;fill-rule:nonzero;"/>
            </g>
            <g transform="matrix(17.2145,0,0,17.2145,455.156,848.352)">
                <path d="M0.326,-0L0.326,-0.32C0.326,-0.333 0.325,-0.345 0.324,-0.359C0.323,-0.372 0.32,-0.383 0.316,-0.394C0.311,-0.405 0.305,-0.413 0.297,-0.42C0.288,-0.426 0.277,-0.429 0.264,-0.429C0.239,-0.429 0.219,-0.416 0.204,-0.391C0.189,-0.366 0.181,-0.334 0.181,-0.295L0.181,-0L0.068,-0L0.068,-0.756L0.181,-0.756L0.181,-0.431L0.183,-0.431C0.192,-0.457 0.207,-0.48 0.228,-0.499C0.249,-0.518 0.275,-0.527 0.307,-0.527C0.335,-0.527 0.358,-0.521 0.375,-0.51C0.392,-0.498 0.406,-0.482 0.415,-0.463C0.424,-0.444 0.431,-0.422 0.434,-0.397C0.437,-0.372 0.439,-0.346 0.439,-0.32L0.439,-0L0.326,-0Z" style="fill:white;fill-rule:nonzero;"/>
            </g>
            <g transform="matrix(17.2145,0,0,17.2145,463.901,848.352)">
                <path d="M0.275,-0.239L0.242,-0.239C0.228,-0.239 0.215,-0.238 0.202,-0.236C0.189,-0.233 0.177,-0.229 0.167,-0.222C0.157,-0.215 0.149,-0.206 0.143,-0.195C0.137,-0.183 0.134,-0.168 0.134,-0.15C0.134,-0.123 0.14,-0.104 0.152,-0.091C0.163,-0.078 0.177,-0.072 0.192,-0.072C0.207,-0.072 0.22,-0.076 0.231,-0.085C0.242,-0.094 0.25,-0.105 0.257,-0.118C0.263,-0.131 0.268,-0.146 0.271,-0.163C0.274,-0.179 0.275,-0.195 0.275,-0.21L0.275,-0.239ZM0.279,-0.076C0.272,-0.048 0.258,-0.026 0.239,-0.011C0.22,0.005 0.194,0.013 0.162,0.013C0.147,0.013 0.132,0.01 0.117,0.005C0.102,-0 0.088,-0.009 0.076,-0.022C0.063,-0.034 0.053,-0.05 0.045,-0.07C0.037,-0.089 0.033,-0.113 0.033,-0.141C0.033,-0.177 0.04,-0.207 0.053,-0.23C0.066,-0.253 0.082,-0.271 0.103,-0.284C0.123,-0.297 0.146,-0.307 0.171,-0.312C0.196,-0.317 0.22,-0.319 0.244,-0.319L0.272,-0.319L0.272,-0.335C0.272,-0.369 0.265,-0.394 0.252,-0.409C0.238,-0.424 0.22,-0.431 0.197,-0.431C0.178,-0.431 0.16,-0.427 0.145,-0.418C0.129,-0.409 0.115,-0.397 0.104,-0.382L0.05,-0.453C0.069,-0.476 0.092,-0.495 0.121,-0.508C0.15,-0.521 0.178,-0.527 0.206,-0.527C0.237,-0.527 0.264,-0.522 0.286,-0.512C0.307,-0.502 0.325,-0.488 0.338,-0.469C0.351,-0.45 0.361,-0.426 0.367,-0.398C0.372,-0.37 0.375,-0.338 0.375,-0.303L0.375,-0L0.281,-0L0.281,-0.076L0.279,-0.076Z" style="fill:white;fill-rule:nonzero;"/>
            </g>
            <g transform="matrix(17.2145,0,0,17.2145,471.475,848.352)">
                <path d="M0.183,-0.412C0.192,-0.45 0.205,-0.479 0.224,-0.498C0.243,-0.517 0.265,-0.527 0.29,-0.527L0.299,-0.527C0.301,-0.527 0.304,-0.526 0.307,-0.525L0.301,-0.409C0.294,-0.411 0.286,-0.412 0.277,-0.412C0.262,-0.412 0.249,-0.408 0.238,-0.399C0.227,-0.39 0.217,-0.378 0.209,-0.363C0.201,-0.348 0.195,-0.332 0.191,-0.313C0.187,-0.294 0.185,-0.275 0.185,-0.256L0.185,-0L0.07,-0L0.07,-0.51L0.181,-0.51L0.181,-0.412L0.183,-0.412Z" style="fill:white;fill-rule:nonzero;"/>
            </g>
            <g transform="matrix(17.2145,0,0,17.2145,476.846,848.352)">
                <path d="M0.182,-0.423L0.182,-0.161C0.182,-0.133 0.186,-0.113 0.195,-0.1C0.203,-0.087 0.216,-0.081 0.233,-0.081C0.239,-0.081 0.245,-0.082 0.252,-0.083C0.258,-0.084 0.263,-0.086 0.268,-0.089L0.27,-0.001C0.262,0.003 0.251,0.006 0.238,0.009C0.225,0.012 0.211,0.013 0.198,0.013C0.155,0.013 0.124,0 0.105,-0.026C0.086,-0.051 0.076,-0.088 0.076,-0.136L0.076,-0.423L0.012,-0.423L0.012,-0.51L0.076,-0.51L0.076,-0.64L0.182,-0.64L0.182,-0.51L0.271,-0.51L0.271,-0.423L0.182,-0.423Z" style="fill:white;fill-rule:nonzero;"/>
            </g>
            <g transform="matrix(17.2145,0,0,17.2145,481.821,848.352)">
                <path d="M0.149,-0.226C0.149,-0.206 0.151,-0.187 0.155,-0.17C0.159,-0.152 0.165,-0.137 0.173,-0.124C0.18,-0.111 0.19,-0.1 0.201,-0.093C0.212,-0.085 0.224,-0.081 0.239,-0.081C0.26,-0.081 0.276,-0.088 0.289,-0.101C0.301,-0.114 0.311,-0.13 0.318,-0.147L0.401,-0.099C0.386,-0.064 0.366,-0.035 0.339,-0.015C0.312,0.007 0.277,0.017 0.235,0.017C0.176,0.017 0.128,-0.006 0.092,-0.053C0.056,-0.1 0.038,-0.167 0.038,-0.254C0.038,-0.295 0.043,-0.332 0.052,-0.366C0.061,-0.399 0.075,-0.428 0.092,-0.452C0.109,-0.476 0.13,-0.495 0.154,-0.508C0.177,-0.521 0.204,-0.527 0.233,-0.527C0.266,-0.527 0.294,-0.52 0.317,-0.507C0.339,-0.494 0.358,-0.475 0.373,-0.453C0.387,-0.43 0.397,-0.402 0.404,-0.371C0.411,-0.34 0.414,-0.306 0.414,-0.269L0.414,-0.226L0.149,-0.226ZM0.306,-0.308C0.306,-0.346 0.3,-0.377 0.288,-0.401C0.276,-0.424 0.257,-0.436 0.232,-0.436C0.217,-0.436 0.205,-0.432 0.195,-0.423C0.184,-0.414 0.176,-0.404 0.17,-0.391C0.163,-0.378 0.158,-0.364 0.155,-0.349C0.152,-0.334 0.15,-0.32 0.15,-0.308L0.306,-0.308Z" style="fill:white;fill-rule:nonzero;"/>
            </g>
            <g transform="matrix(17.2145,0,0,17.2145,489.619,848.352)">
                <path d="M0.183,-0.412C0.192,-0.45 0.205,-0.479 0.224,-0.498C0.243,-0.517 0.265,-0.527 0.29,-0.527L0.299,-0.527C0.301,-0.527 0.304,-0.526 0.307,-0.525L0.301,-0.409C0.294,-0.411 0.286,-0.412 0.277,-0.412C0.262,-0.412 0.249,-0.408 0.238,-0.399C0.227,-0.39 0.217,-0.378 0.209,-0.363C0.201,-0.348 0.195,-0.332 0.191,-0.313C0.187,-0.294 0.185,-0.275 0.185,-0.256L0.185,-0L0.07,-0L0.07,-0.51L0.181,-0.51L0.181,-0.412L0.183,-0.412Z" style="fill:white;fill-rule:nonzero;"/>
            </g>
            <g transform="matrix(17.2145,0,0,17.2145,494.887,848.352)">
                <path d="M0.149,-0.226C0.149,-0.206 0.151,-0.187 0.155,-0.17C0.159,-0.152 0.165,-0.137 0.173,-0.124C0.18,-0.111 0.19,-0.1 0.201,-0.093C0.212,-0.085 0.224,-0.081 0.239,-0.081C0.26,-0.081 0.276,-0.088 0.289,-0.101C0.301,-0.114 0.311,-0.13 0.318,-0.147L0.401,-0.099C0.386,-0.064 0.366,-0.035 0.339,-0.015C0.312,0.007 0.277,0.017 0.235,0.017C0.176,0.017 0.128,-0.006 0.092,-0.053C0.056,-0.1 0.038,-0.167 0.038,-0.254C0.038,-0.295 0.043,-0.332 0.052,-0.366C0.061,-0.399 0.075,-0.428 0.092,-0.452C0.109,-0.476 0.13,-0.495 0.154,-0.508C0.177,-0.521 0.204,-0.527 0.233,-0.527C0.266,-0.527 0.294,-0.52 0.317,-0.507C0.339,-0.494 0.358,-0.475 0.373,-0.453C0.387,-0.43 0.397,-0.402 0.404,-0.371C0.411,-0.34 0.414,-0.306 0.414,-0.269L0.414,-0.226L0.149,-0.226ZM0.306,-0.308C0.306,-0.346 0.3,-0.377 0.288,-0.401C0.276,-0.424 0.257,-0.436 0.232,-0.436C0.217,-0.436 0.205,-0.432 0.195,-0.423C0.184,-0.414 0.176,-0.404 0.17,-0.391C0.163,-0.378 0.158,-0.364 0.155,-0.349C0.152,-0.334 0.15,-0.32 0.15,-0.308L0.306,-0.308Z" style="fill:white;fill-rule:nonzero;"/>
            </g>
            <g transform="matrix(17.2145,0,0,17.2145,502.685,848.352)">
                <path d="M0.319,-0L0.319,-0.073L0.317,-0.073C0.31,-0.048 0.297,-0.026 0.28,-0.009C0.262,0.008 0.236,0.017 0.203,0.017C0.177,0.017 0.154,0.01 0.133,-0.004C0.112,-0.018 0.095,-0.038 0.081,-0.063C0.067,-0.088 0.056,-0.117 0.049,-0.151C0.042,-0.184 0.038,-0.221 0.038,-0.26C0.038,-0.299 0.042,-0.334 0.049,-0.367C0.056,-0.4 0.066,-0.428 0.08,-0.452C0.094,-0.475 0.111,-0.494 0.132,-0.507C0.152,-0.52 0.176,-0.527 0.203,-0.527C0.231,-0.527 0.255,-0.519 0.274,-0.504C0.293,-0.488 0.307,-0.468 0.314,-0.445L0.317,-0.445L0.317,-0.756L0.428,-0.756L0.428,-0L0.319,-0ZM0.321,-0.255C0.321,-0.28 0.319,-0.303 0.316,-0.324C0.312,-0.345 0.307,-0.363 0.3,-0.379C0.293,-0.394 0.284,-0.407 0.273,-0.416C0.262,-0.425 0.249,-0.429 0.235,-0.429C0.22,-0.429 0.208,-0.425 0.197,-0.416C0.186,-0.407 0.178,-0.394 0.171,-0.379C0.164,-0.363 0.159,-0.345 0.156,-0.324C0.153,-0.303 0.151,-0.28 0.151,-0.255C0.151,-0.231 0.153,-0.209 0.156,-0.188C0.159,-0.167 0.164,-0.148 0.171,-0.133C0.178,-0.117 0.186,-0.105 0.197,-0.096C0.208,-0.087 0.22,-0.082 0.235,-0.082C0.25,-0.082 0.262,-0.087 0.273,-0.096C0.284,-0.105 0.293,-0.117 0.3,-0.133C0.307,-0.148 0.312,-0.167 0.316,-0.188C0.319,-0.209 0.321,-0.231 0.321,-0.255Z" style="fill:white;fill-rule:nonzero;"/>
            </g>
            <g transform="matrix(17.2145,0,0,17.2145,514.442,848.352)">
                <path d="M0.379,-0L0.344,-0.15L0.158,-0.15L0.122,-0L0.002,-0L0.178,-0.708L0.331,-0.708L0.504,-0L0.379,-0ZM0.254,-0.595L0.25,-0.595L0.173,-0.244L0.329,-0.244L0.254,-0.595Z" style="fill:white;fill-rule:nonzero;"/>
            </g>
            <g transform="matrix(17.2145,0,0,17.2145,522.378,848.352)">
                <path d="M0.348,-0.03C0.334,-0.015 0.317,-0.004 0.297,0.005C0.277,0.013 0.254,0.017 0.229,0.017C0.198,0.017 0.17,0.01 0.146,-0.003C0.122,-0.016 0.102,-0.035 0.086,-0.06C0.07,-0.084 0.058,-0.113 0.05,-0.146C0.042,-0.179 0.038,-0.216 0.038,-0.256C0.038,-0.296 0.042,-0.333 0.051,-0.366C0.059,-0.399 0.071,-0.428 0.088,-0.452C0.104,-0.476 0.124,-0.495 0.148,-0.508C0.171,-0.521 0.199,-0.527 0.23,-0.527C0.257,-0.527 0.281,-0.522 0.301,-0.513C0.32,-0.504 0.336,-0.493 0.347,-0.482L0.296,-0.397C0.289,-0.405 0.28,-0.412 0.271,-0.417C0.261,-0.422 0.249,-0.425 0.235,-0.425C0.207,-0.425 0.186,-0.409 0.172,-0.379C0.157,-0.347 0.15,-0.307 0.15,-0.256C0.15,-0.205 0.157,-0.165 0.172,-0.134C0.187,-0.103 0.209,-0.088 0.239,-0.088C0.253,-0.088 0.265,-0.091 0.275,-0.096C0.285,-0.101 0.294,-0.109 0.301,-0.118L0.348,-0.03Z" style="fill:white;fill-rule:nonzero;"/>
            </g>
            <g transform="matrix(17.2145,0,0,17.2145,528.507,848.352)">
                <path d="M0.348,-0.03C0.334,-0.015 0.317,-0.004 0.297,0.005C0.277,0.013 0.254,0.017 0.229,0.017C0.198,0.017 0.17,0.01 0.146,-0.003C0.122,-0.016 0.102,-0.035 0.086,-0.06C0.07,-0.084 0.058,-0.113 0.05,-0.146C0.042,-0.179 0.038,-0.216 0.038,-0.256C0.038,-0.296 0.042,-0.333 0.051,-0.366C0.059,-0.399 0.071,-0.428 0.088,-0.452C0.104,-0.476 0.124,-0.495 0.148,-0.508C0.171,-0.521 0.199,-0.527 0.23,-0.527C0.257,-0.527 0.281,-0.522 0.301,-0.513C0.32,-0.504 0.336,-0.493 0.347,-0.482L0.296,-0.397C0.289,-0.405 0.28,-0.412 0.271,-0.417C0.261,-0.422 0.249,-0.425 0.235,-0.425C0.207,-0.425 0.186,-0.409 0.172,-0.379C0.157,-0.347 0.15,-0.307 0.15,-0.256C0.15,-0.205 0.157,-0.165 0.172,-0.134C0.187,-0.103 0.209,-0.088 0.239,-0.088C0.253,-0.088 0.265,-0.091 0.275,-0.096C0.285,-0.101 0.294,-0.109 0.301,-0.118L0.348,-0.03Z" style="fill:white;fill-rule:nonzero;"/>
            </g>
            <g transform="matrix(17.2145,0,0,17.2145,534.635,848.352)">
                <path d="M0.43,-0.254C0.43,-0.214 0.426,-0.177 0.417,-0.144C0.408,-0.111 0.395,-0.082 0.378,-0.059C0.361,-0.035 0.34,-0.016 0.316,-0.003C0.292,0.01 0.265,0.017 0.234,0.017C0.203,0.017 0.176,0.01 0.152,-0.003C0.128,-0.016 0.108,-0.035 0.091,-0.059C0.074,-0.082 0.061,-0.111 0.052,-0.144C0.043,-0.177 0.038,-0.214 0.038,-0.254C0.038,-0.295 0.043,-0.332 0.052,-0.366C0.061,-0.399 0.073,-0.428 0.09,-0.452C0.107,-0.476 0.127,-0.495 0.152,-0.508C0.176,-0.521 0.203,-0.527 0.234,-0.527C0.265,-0.527 0.292,-0.521 0.316,-0.508C0.34,-0.495 0.361,-0.476 0.378,-0.452C0.395,-0.428 0.408,-0.399 0.417,-0.366C0.426,-0.332 0.43,-0.295 0.43,-0.254ZM0.318,-0.255C0.318,-0.28 0.316,-0.303 0.313,-0.324C0.31,-0.345 0.305,-0.363 0.298,-0.379C0.291,-0.394 0.282,-0.407 0.272,-0.416C0.261,-0.425 0.249,-0.429 0.234,-0.429C0.219,-0.429 0.207,-0.425 0.197,-0.416C0.186,-0.407 0.178,-0.394 0.171,-0.379C0.164,-0.363 0.159,-0.345 0.156,-0.324C0.153,-0.303 0.151,-0.28 0.151,-0.255C0.151,-0.231 0.153,-0.208 0.156,-0.187C0.159,-0.166 0.164,-0.147 0.171,-0.132C0.178,-0.117 0.186,-0.105 0.197,-0.096C0.207,-0.087 0.219,-0.082 0.234,-0.082C0.249,-0.082 0.261,-0.087 0.272,-0.096C0.283,-0.105 0.291,-0.117 0.298,-0.132C0.305,-0.147 0.31,-0.166 0.313,-0.187C0.316,-0.208 0.318,-0.231 0.318,-0.255Z" style="fill:white;fill-rule:nonzero;"/>
            </g>
            <g transform="matrix(17.2145,0,0,17.2145,542.778,848.352)">
                <path d="M0.324,-0L0.324,-0.081L0.322,-0.081C0.313,-0.054 0.297,-0.031 0.276,-0.012C0.254,0.008 0.227,0.017 0.195,0.017C0.167,0.017 0.145,0.011 0.128,-0.001C0.111,-0.012 0.097,-0.028 0.088,-0.047C0.079,-0.066 0.072,-0.089 0.069,-0.114C0.066,-0.138 0.064,-0.164 0.064,-0.19L0.064,-0.51L0.177,-0.51L0.177,-0.19C0.177,-0.177 0.178,-0.164 0.179,-0.151C0.18,-0.138 0.183,-0.127 0.188,-0.117C0.192,-0.106 0.198,-0.098 0.207,-0.092C0.215,-0.085 0.226,-0.082 0.239,-0.082C0.264,-0.082 0.285,-0.095 0.3,-0.12C0.315,-0.145 0.322,-0.176 0.322,-0.215L0.322,-0.51L0.435,-0.51L0.435,-0L0.324,-0Z" style="fill:white;fill-rule:nonzero;"/>
            </g>
            <g transform="matrix(17.2145,0,0,17.2145,551.557,848.352)">
                <path d="M0.181,-0.51L0.181,-0.429L0.183,-0.429C0.192,-0.456 0.208,-0.48 0.23,-0.499C0.251,-0.518 0.278,-0.527 0.31,-0.527C0.338,-0.527 0.361,-0.521 0.378,-0.51C0.395,-0.498 0.408,-0.482 0.417,-0.463C0.426,-0.444 0.433,-0.422 0.436,-0.397C0.439,-0.372 0.441,-0.346 0.441,-0.32L0.441,-0L0.328,-0L0.328,-0.32C0.328,-0.333 0.327,-0.345 0.326,-0.359C0.325,-0.372 0.322,-0.383 0.318,-0.394C0.313,-0.405 0.307,-0.413 0.299,-0.42C0.29,-0.426 0.279,-0.429 0.266,-0.429C0.241,-0.429 0.221,-0.416 0.206,-0.391C0.191,-0.366 0.183,-0.334 0.183,-0.295L0.183,-0L0.07,-0L0.07,-0.51L0.181,-0.51Z" style="fill:white;fill-rule:nonzero;"/>
            </g>
            <g transform="matrix(17.2145,0,0,17.2145,560.336,848.352)">
                <path d="M0.182,-0.423L0.182,-0.161C0.182,-0.133 0.186,-0.113 0.195,-0.1C0.203,-0.087 0.216,-0.081 0.233,-0.081C0.239,-0.081 0.245,-0.082 0.252,-0.083C0.258,-0.084 0.263,-0.086 0.268,-0.089L0.27,-0.001C0.262,0.003 0.251,0.006 0.238,0.009C0.225,0.012 0.211,0.013 0.198,0.013C0.155,0.013 0.124,0 0.105,-0.026C0.086,-0.051 0.076,-0.088 0.076,-0.136L0.076,-0.423L0.012,-0.423L0.012,-0.51L0.076,-0.51L0.076,-0.64L0.182,-0.64L0.182,-0.51L0.271,-0.51L0.271,-0.423L0.182,-0.423Z" style="fill:white;fill-rule:nonzero;"/>
            </g>
            <g transform="matrix(17.2145,0,0,17.2145,565.311,848.352)">
                <path d="M0.275,-0.239L0.242,-0.239C0.228,-0.239 0.215,-0.238 0.202,-0.236C0.189,-0.233 0.177,-0.229 0.167,-0.222C0.157,-0.215 0.149,-0.206 0.143,-0.195C0.137,-0.183 0.134,-0.168 0.134,-0.15C0.134,-0.123 0.14,-0.104 0.152,-0.091C0.163,-0.078 0.177,-0.072 0.192,-0.072C0.207,-0.072 0.22,-0.076 0.231,-0.085C0.242,-0.094 0.25,-0.105 0.257,-0.118C0.263,-0.131 0.268,-0.146 0.271,-0.163C0.274,-0.179 0.275,-0.195 0.275,-0.21L0.275,-0.239ZM0.279,-0.076C0.272,-0.048 0.258,-0.026 0.239,-0.011C0.22,0.005 0.194,0.013 0.162,0.013C0.147,0.013 0.132,0.01 0.117,0.005C0.102,-0 0.088,-0.009 0.076,-0.022C0.063,-0.034 0.053,-0.05 0.045,-0.07C0.037,-0.089 0.033,-0.113 0.033,-0.141C0.033,-0.177 0.04,-0.207 0.053,-0.23C0.066,-0.253 0.082,-0.271 0.103,-0.284C0.123,-0.297 0.146,-0.307 0.171,-0.312C0.196,-0.317 0.22,-0.319 0.244,-0.319L0.272,-0.319L0.272,-0.335C0.272,-0.369 0.265,-0.394 0.252,-0.409C0.238,-0.424 0.22,-0.431 0.197,-0.431C0.178,-0.431 0.16,-0.427 0.145,-0.418C0.129,-0.409 0.115,-0.397 0.104,-0.382L0.05,-0.453C0.069,-0.476 0.092,-0.495 0.121,-0.508C0.15,-0.521 0.178,-0.527 0.206,-0.527C0.237,-0.527 0.264,-0.522 0.286,-0.512C0.307,-0.502 0.325,-0.488 0.338,-0.469C0.351,-0.45 0.361,-0.426 0.367,-0.398C0.372,-0.37 0.375,-0.338 0.375,-0.303L0.375,-0L0.281,-0L0.281,-0.076L0.279,-0.076Z" style="fill:white;fill-rule:nonzero;"/>
            </g>
            <g transform="matrix(17.2145,0,0,17.2145,572.886,848.352)">
                <path d="M0.181,-0.51L0.181,-0.429L0.183,-0.429C0.192,-0.456 0.208,-0.48 0.23,-0.499C0.251,-0.518 0.278,-0.527 0.31,-0.527C0.338,-0.527 0.361,-0.521 0.378,-0.51C0.395,-0.498 0.408,-0.482 0.417,-0.463C0.426,-0.444 0.433,-0.422 0.436,-0.397C0.439,-0.372 0.441,-0.346 0.441,-0.32L0.441,-0L0.328,-0L0.328,-0.32C0.328,-0.333 0.327,-0.345 0.326,-0.359C0.325,-0.372 0.322,-0.383 0.318,-0.394C0.313,-0.405 0.307,-0.413 0.299,-0.42C0.29,-0.426 0.279,-0.429 0.266,-0.429C0.241,-0.429 0.221,-0.416 0.206,-0.391C0.191,-0.366 0.183,-0.334 0.183,-0.295L0.183,-0L0.07,-0L0.07,-0.51L0.181,-0.51Z" style="fill:white;fill-rule:nonzero;"/>
            </g>
            <g transform="matrix(17.2145,0,0,17.2145,581.665,848.352)">
                <path d="M0.182,-0.423L0.182,-0.161C0.182,-0.133 0.186,-0.113 0.195,-0.1C0.203,-0.087 0.216,-0.081 0.233,-0.081C0.239,-0.081 0.245,-0.082 0.252,-0.083C0.258,-0.084 0.263,-0.086 0.268,-0.089L0.27,-0.001C0.262,0.003 0.251,0.006 0.238,0.009C0.225,0.012 0.211,0.013 0.198,0.013C0.155,0.013 0.124,0 0.105,-0.026C0.086,-0.051 0.076,-0.088 0.076,-0.136L0.076,-0.423L0.012,-0.423L0.012,-0.51L0.076,-0.51L0.076,-0.64L0.182,-0.64L0.182,-0.51L0.271,-0.51L0.271,-0.423L0.182,-0.423Z" style="fill:white;fill-rule:nonzero;"/>
            </g>
            <g transform="matrix(17.2145,0,0,17.2145,586.64,848.352)">
                <path d="M0.285,-0.395C0.276,-0.408 0.264,-0.418 0.25,-0.426C0.236,-0.434 0.22,-0.438 0.202,-0.438C0.185,-0.438 0.171,-0.432 0.16,-0.421C0.149,-0.409 0.143,-0.393 0.143,-0.374C0.143,-0.354 0.149,-0.339 0.161,-0.331C0.173,-0.322 0.192,-0.312 0.218,-0.303C0.233,-0.298 0.247,-0.291 0.262,-0.284C0.276,-0.276 0.289,-0.266 0.301,-0.254C0.312,-0.242 0.322,-0.228 0.329,-0.211C0.335,-0.194 0.339,-0.173 0.339,-0.15C0.339,-0.122 0.335,-0.097 0.326,-0.077C0.317,-0.055 0.304,-0.038 0.289,-0.024C0.274,-0.01 0.256,0 0.237,0.007C0.217,0.014 0.196,0.017 0.175,0.017C0.143,0.017 0.113,0.011 0.086,-0.002C0.058,-0.015 0.034,-0.032 0.015,-0.053L0.076,-0.125C0.088,-0.111 0.102,-0.099 0.118,-0.089C0.134,-0.079 0.153,-0.074 0.174,-0.074C0.193,-0.074 0.207,-0.08 0.218,-0.093C0.229,-0.106 0.234,-0.122 0.234,-0.143C0.234,-0.167 0.226,-0.184 0.211,-0.195C0.195,-0.206 0.174,-0.216 0.148,-0.225C0.135,-0.23 0.122,-0.235 0.109,-0.242C0.096,-0.249 0.085,-0.258 0.074,-0.269C0.063,-0.28 0.055,-0.294 0.049,-0.311C0.042,-0.327 0.039,-0.347 0.039,-0.37C0.039,-0.395 0.044,-0.417 0.053,-0.436C0.062,-0.455 0.073,-0.472 0.088,-0.486C0.103,-0.499 0.12,-0.509 0.139,-0.517C0.158,-0.524 0.178,-0.527 0.199,-0.527C0.23,-0.527 0.257,-0.522 0.282,-0.511C0.307,-0.5 0.328,-0.485 0.345,-0.468L0.285,-0.395Z" style="fill:white;fill-rule:nonzero;"/>
            </g>
            <g transform="matrix(17.2145,0,0,17.2145,596.556,848.352)">
                <path d="M0.035,-0.68L0.035,-0.639L0.083,-0.639C0.11,-0.639 0.123,-0.628 0.123,-0.608L0.123,-0.071C0.123,-0.051 0.11,-0.041 0.083,-0.041L0.035,-0.041L0.035,-0L0.526,-0L0.526,-0.25L0.479,-0.25C0.477,-0.163 0.463,-0.108 0.439,-0.087C0.416,-0.066 0.396,-0.053 0.381,-0.048C0.366,-0.043 0.348,-0.041 0.328,-0.041L0.263,-0.041C0.238,-0.041 0.226,-0.05 0.226,-0.069L0.226,-0.608C0.226,-0.629 0.24,-0.639 0.267,-0.639L0.314,-0.639L0.314,-0.68L0.035,-0.68Z" style="fill:rgb(236,179,101);fill-rule:nonzero;"/>
            </g>
            <g transform="matrix(17.2145,0,0,17.2145,605.781,848.352)">
                <path d="M0.212,0.014C0.286,0.014 0.338,-0.028 0.368,-0.112L0.33,-0.128C0.307,-0.064 0.272,-0.032 0.224,-0.033C0.161,-0.033 0.129,-0.095 0.129,-0.221L0.375,-0.221L0.375,-0.264C0.375,-0.319 0.36,-0.367 0.33,-0.409C0.3,-0.45 0.26,-0.471 0.21,-0.471C0.16,-0.471 0.117,-0.448 0.082,-0.402C0.046,-0.356 0.029,-0.297 0.029,-0.227C0.029,-0.156 0.047,-0.098 0.083,-0.053C0.119,-0.008 0.162,0.014 0.212,0.014L0.212,0.014ZM0.129,-0.259C0.129,-0.314 0.137,-0.356 0.153,-0.386C0.169,-0.415 0.187,-0.43 0.207,-0.43C0.226,-0.43 0.243,-0.419 0.257,-0.398C0.271,-0.377 0.278,-0.345 0.278,-0.301L0.278,-0.278C0.278,-0.265 0.273,-0.258 0.263,-0.258L0.129,-0.259Z" style="fill:rgb(236,179,101);fill-rule:nonzero;"/>
            </g>
            <g transform="matrix(17.2145,0,0,17.2145,612.216,848.352)">
                <path d="M0.005,-0.417L0.085,-0.417L0.085,-0.132C0.085,-0.035 0.121,0.014 0.193,0.014C0.267,0.014 0.304,-0.048 0.304,-0.173L0.304,-0.197L0.26,-0.197L0.26,-0.173C0.26,-0.087 0.244,-0.044 0.213,-0.044C0.196,-0.044 0.184,-0.05 0.178,-0.063C0.172,-0.077 0.169,-0.096 0.169,-0.121L0.169,-0.417L0.283,-0.417L0.283,-0.456L0.169,-0.456L0.169,-0.664L0.12,-0.664L0.12,-0.646C0.12,-0.52 0.081,-0.456 0.004,-0.456L0.005,-0.417Z" style="fill:rgb(236,179,101);fill-rule:nonzero;"/>
            </g>
            <g transform="matrix(17.2145,0,0,17.2145,620.942,848.352)">
                <path d="M0.026,-0.417L0.05,-0.417C0.064,-0.417 0.074,-0.416 0.079,-0.413C0.084,-0.411 0.087,-0.405 0.087,-0.396L0.087,-0.146C0.087,-0.098 0.095,-0.059 0.112,-0.03C0.128,-0 0.16,0.014 0.206,0.014C0.265,0.014 0.306,-0.016 0.329,-0.074L0.333,-0.074L0.333,-0L0.475,-0L0.475,-0.04L0.452,-0.04C0.436,-0.04 0.426,-0.042 0.421,-0.045C0.416,-0.048 0.414,-0.058 0.414,-0.072L0.414,-0.471L0.268,-0.457L0.268,-0.417L0.292,-0.417C0.306,-0.417 0.315,-0.416 0.321,-0.414C0.326,-0.411 0.329,-0.405 0.329,-0.396L0.329,-0.195C0.329,-0.146 0.317,-0.106 0.294,-0.078C0.271,-0.05 0.249,-0.036 0.227,-0.036C0.189,-0.036 0.171,-0.073 0.171,-0.148L0.171,-0.471L0.025,-0.457L0.026,-0.417Z" style="fill:rgb(236,179,101);fill-rule:nonzero;"/>
            </g>
            <g transform="matrix(17.2145,0,0,17.2145,629.151,848.352)">
                <path d="M0.33,-0.456L0.292,-0.456L0.277,-0.424C0.248,-0.455 0.213,-0.47 0.172,-0.47C0.132,-0.47 0.1,-0.457 0.075,-0.431C0.051,-0.404 0.039,-0.372 0.039,-0.334C0.039,-0.281 0.051,-0.247 0.077,-0.231C0.102,-0.215 0.121,-0.204 0.134,-0.199C0.147,-0.193 0.167,-0.188 0.195,-0.181C0.222,-0.175 0.245,-0.166 0.264,-0.153C0.283,-0.141 0.292,-0.124 0.292,-0.101C0.292,-0.052 0.266,-0.027 0.213,-0.027C0.147,-0.027 0.103,-0.073 0.082,-0.165L0.035,-0.165L0.035,0L0.079,0L0.096,-0.033C0.125,-0.001 0.162,0.015 0.208,0.015C0.236,0.015 0.26,0.01 0.281,-0C0.301,-0.01 0.318,-0.025 0.332,-0.047C0.346,-0.068 0.353,-0.097 0.353,-0.132C0.353,-0.167 0.344,-0.194 0.326,-0.215C0.309,-0.236 0.29,-0.25 0.271,-0.258C0.251,-0.265 0.23,-0.271 0.208,-0.277C0.187,-0.283 0.169,-0.289 0.156,-0.293C0.143,-0.297 0.13,-0.305 0.119,-0.316C0.108,-0.328 0.102,-0.343 0.102,-0.362C0.102,-0.382 0.109,-0.397 0.123,-0.41C0.136,-0.422 0.153,-0.428 0.173,-0.428C0.204,-0.428 0.228,-0.417 0.245,-0.395C0.262,-0.373 0.276,-0.341 0.289,-0.299L0.33,-0.299L0.33,-0.456Z" style="fill:rgb(236,179,101);fill-rule:nonzero;"/>
            </g>
            <g transform="matrix(17.2145,0,0,17.2145,638.717,848.352)">
                <path d="M0.229,-0.144C0.275,-0.144 0.313,-0.16 0.341,-0.191C0.37,-0.222 0.384,-0.261 0.384,-0.307C0.384,-0.353 0.372,-0.389 0.347,-0.417C0.364,-0.44 0.378,-0.453 0.389,-0.453C0.395,-0.452 0.398,-0.45 0.398,-0.445L0.393,-0.417C0.393,-0.408 0.396,-0.399 0.402,-0.392C0.409,-0.385 0.417,-0.381 0.429,-0.381C0.458,-0.381 0.473,-0.399 0.473,-0.436C0.473,-0.479 0.451,-0.501 0.409,-0.501C0.381,-0.501 0.351,-0.48 0.318,-0.439C0.293,-0.459 0.258,-0.469 0.214,-0.469C0.169,-0.469 0.134,-0.453 0.106,-0.421C0.079,-0.389 0.065,-0.351 0.065,-0.307C0.065,-0.251 0.084,-0.21 0.121,-0.182C0.094,-0.169 0.073,-0.156 0.059,-0.141C0.045,-0.125 0.038,-0.105 0.038,-0.081C0.038,-0.037 0.063,-0.01 0.114,0L0.114,0.004C0.06,0.018 0.032,0.047 0.032,0.092C0.032,0.115 0.046,0.136 0.074,0.155C0.102,0.174 0.149,0.184 0.216,0.184C0.283,0.184 0.333,0.172 0.366,0.147C0.399,0.123 0.416,0.094 0.416,0.061C0.416,0.027 0.405,-0.004 0.384,-0.033C0.363,-0.062 0.314,-0.076 0.238,-0.076L0.161,-0.076C0.128,-0.075 0.111,-0.087 0.111,-0.11C0.111,-0.121 0.115,-0.13 0.122,-0.14C0.129,-0.149 0.138,-0.155 0.149,-0.159C0.178,-0.148 0.204,-0.143 0.227,-0.143L0.229,-0.144ZM0.158,-0.304C0.158,-0.346 0.164,-0.377 0.176,-0.398C0.188,-0.419 0.203,-0.429 0.221,-0.429C0.239,-0.429 0.255,-0.42 0.268,-0.403C0.281,-0.385 0.288,-0.355 0.288,-0.313C0.288,-0.225 0.268,-0.182 0.227,-0.182C0.207,-0.182 0.19,-0.191 0.177,-0.211C0.164,-0.23 0.157,-0.261 0.157,-0.303L0.158,-0.304ZM0.101,0.073C0.101,0.053 0.114,0.038 0.14,0.028C0.166,0.019 0.195,0.014 0.228,0.014C0.311,0.013 0.352,0.032 0.352,0.069C0.352,0.088 0.342,0.105 0.323,0.121C0.304,0.137 0.271,0.145 0.224,0.145C0.142,0.144 0.101,0.12 0.101,0.073L0.101,0.073Z" style="fill:rgb(236,179,101);fill-rule:nonzero;"/>
            </g>
            <g transform="matrix(17.2145,0,0,17.2145,646.337,848.352)">
                <path d="M0.026,-0.417L0.05,-0.417C0.064,-0.417 0.074,-0.416 0.079,-0.413C0.084,-0.411 0.087,-0.405 0.087,-0.396L0.087,-0.146C0.087,-0.098 0.095,-0.059 0.112,-0.03C0.128,-0 0.16,0.014 0.206,0.014C0.265,0.014 0.306,-0.016 0.329,-0.074L0.333,-0.074L0.333,-0L0.475,-0L0.475,-0.04L0.452,-0.04C0.436,-0.04 0.426,-0.042 0.421,-0.045C0.416,-0.048 0.414,-0.058 0.414,-0.072L0.414,-0.471L0.268,-0.457L0.268,-0.417L0.292,-0.417C0.306,-0.417 0.315,-0.416 0.321,-0.414C0.326,-0.411 0.329,-0.405 0.329,-0.396L0.329,-0.195C0.329,-0.146 0.317,-0.106 0.294,-0.078C0.271,-0.05 0.249,-0.036 0.227,-0.036C0.189,-0.036 0.171,-0.073 0.171,-0.148L0.171,-0.471L0.025,-0.457L0.026,-0.417Z" style="fill:rgb(236,179,101);fill-rule:nonzero;"/>
            </g>
            <g transform="matrix(17.2145,0,0,17.2145,654.546,848.352)">
                <path d="M0.029,-0.417L0.058,-0.417C0.083,-0.417 0.095,-0.41 0.095,-0.396L0.095,-0.07C0.095,-0.052 0.092,-0.042 0.085,-0.041C0.079,-0.039 0.072,-0.039 0.065,-0.039L0.025,-0.039L0.025,0L0.25,0L0.25,-0.039L0.209,-0.039C0.203,-0.039 0.196,-0.039 0.19,-0.04C0.184,-0.041 0.18,-0.051 0.18,-0.069L0.18,-0.469L0.029,-0.455L0.029,-0.417ZM0.18,-0.619C0.18,-0.636 0.175,-0.65 0.164,-0.662C0.152,-0.673 0.139,-0.679 0.123,-0.679C0.106,-0.679 0.093,-0.673 0.081,-0.662C0.069,-0.65 0.063,-0.636 0.063,-0.619C0.063,-0.603 0.069,-0.588 0.081,-0.577C0.093,-0.565 0.106,-0.559 0.123,-0.559C0.139,-0.559 0.152,-0.565 0.164,-0.577C0.175,-0.588 0.18,-0.603 0.18,-0.619Z" style="fill:rgb(236,179,101);fill-rule:nonzero;"/>
            </g>
            <g transform="matrix(17.2145,0,0,17.2145,658.762,848.352)">
                <path d="M0.393,-0.07L0.393,-0.711L0.247,-0.697L0.247,-0.658L0.285,-0.658C0.294,-0.658 0.3,-0.657 0.303,-0.654C0.306,-0.652 0.308,-0.646 0.308,-0.637L0.308,-0.444L0.312,-0.414L0.308,-0.414C0.291,-0.436 0.274,-0.451 0.258,-0.459C0.242,-0.467 0.223,-0.471 0.202,-0.471C0.151,-0.471 0.109,-0.448 0.077,-0.404C0.045,-0.359 0.029,-0.303 0.029,-0.234C0.029,-0.165 0.043,-0.106 0.072,-0.059C0.101,-0.011 0.141,0.013 0.192,0.013C0.243,0.013 0.281,-0.012 0.308,-0.062L0.312,-0.062L0.312,-0.001L0.459,-0.001L0.459,-0.04L0.422,-0.04C0.416,-0.04 0.409,-0.041 0.403,-0.042C0.396,-0.042 0.393,-0.052 0.393,-0.07L0.393,-0.07ZM0.31,-0.231C0.31,-0.163 0.3,-0.112 0.281,-0.08C0.261,-0.047 0.24,-0.031 0.217,-0.031C0.194,-0.031 0.173,-0.043 0.156,-0.068C0.138,-0.093 0.129,-0.153 0.129,-0.249C0.129,-0.302 0.137,-0.345 0.153,-0.379C0.168,-0.414 0.188,-0.431 0.213,-0.431C0.238,-0.431 0.26,-0.415 0.28,-0.382C0.299,-0.35 0.309,-0.3 0.309,-0.231L0.31,-0.231Z" style="fill:rgb(236,179,101);fill-rule:nonzero;"/>
            </g>
            <g transform="matrix(17.2145,0,0,17.2145,666.659,848.352)">
                <path d="M0.212,0.014C0.286,0.014 0.338,-0.028 0.368,-0.112L0.33,-0.128C0.307,-0.064 0.272,-0.032 0.224,-0.033C0.161,-0.033 0.129,-0.095 0.129,-0.221L0.375,-0.221L0.375,-0.264C0.375,-0.319 0.36,-0.367 0.33,-0.409C0.3,-0.45 0.26,-0.471 0.21,-0.471C0.16,-0.471 0.117,-0.448 0.082,-0.402C0.046,-0.356 0.029,-0.297 0.029,-0.227C0.029,-0.156 0.047,-0.098 0.083,-0.053C0.119,-0.008 0.162,0.014 0.212,0.014L0.212,0.014ZM0.129,-0.259C0.129,-0.314 0.137,-0.356 0.153,-0.386C0.169,-0.415 0.187,-0.43 0.207,-0.43C0.226,-0.43 0.243,-0.419 0.257,-0.398C0.271,-0.377 0.278,-0.345 0.278,-0.301L0.278,-0.278C0.278,-0.265 0.273,-0.258 0.263,-0.258L0.129,-0.259Z" style="fill:rgb(236,179,101);fill-rule:nonzero;"/>
            </g>
            <g transform="matrix(17.2145,0,0,17.2145,676.587,848.352)">
                <path d="M-0.003,-0.417L0.012,-0.417C0.024,-0.417 0.034,-0.414 0.04,-0.409C0.046,-0.403 0.052,-0.392 0.058,-0.375L0.198,0.008L0.179,0.069C0.175,0.083 0.168,0.099 0.158,0.115C0.148,0.131 0.14,0.139 0.132,0.139C0.124,0.139 0.12,0.135 0.12,0.129C0.12,0.127 0.122,0.123 0.125,0.116C0.127,0.109 0.129,0.101 0.129,0.092C0.129,0.083 0.125,0.074 0.116,0.066C0.108,0.059 0.097,0.055 0.083,0.055C0.069,0.055 0.058,0.06 0.049,0.07C0.041,0.081 0.036,0.094 0.036,0.111C0.036,0.128 0.042,0.145 0.055,0.16C0.068,0.176 0.087,0.184 0.113,0.184C0.164,0.184 0.201,0.148 0.226,0.078L0.381,-0.369C0.393,-0.4 0.408,-0.416 0.428,-0.416L0.436,-0.416L0.436,-0.455L0.27,-0.455L0.27,-0.416L0.285,-0.416C0.314,-0.416 0.329,-0.406 0.329,-0.388C0.329,-0.373 0.326,-0.356 0.32,-0.338L0.248,-0.116L0.243,-0.116L0.158,-0.363C0.153,-0.378 0.15,-0.388 0.15,-0.392C0.15,-0.407 0.16,-0.415 0.178,-0.415L0.197,-0.415L0.197,-0.454L-0.003,-0.454L-0.003,-0.417Z" style="fill:rgb(236,179,101);fill-rule:nonzero;"/>
            </g>
            <g transform="matrix(17.2145,0,0,17.2145,683.535,848.352)">
                <path d="M0.419,-0.228C0.419,-0.254 0.415,-0.28 0.408,-0.307C0.4,-0.334 0.39,-0.36 0.375,-0.385C0.361,-0.41 0.341,-0.43 0.314,-0.446C0.288,-0.461 0.258,-0.469 0.224,-0.469C0.189,-0.469 0.159,-0.461 0.133,-0.446C0.106,-0.43 0.086,-0.41 0.071,-0.385C0.057,-0.36 0.046,-0.334 0.039,-0.307C0.031,-0.28 0.027,-0.254 0.027,-0.228C0.027,-0.202 0.031,-0.176 0.038,-0.149C0.045,-0.122 0.056,-0.096 0.071,-0.071C0.085,-0.046 0.106,-0.026 0.132,-0.01C0.159,0.005 0.189,0.013 0.223,0.013C0.257,0.013 0.288,0.005 0.314,-0.01C0.34,-0.026 0.361,-0.046 0.375,-0.071C0.389,-0.096 0.4,-0.122 0.407,-0.149C0.415,-0.176 0.418,-0.202 0.418,-0.228L0.419,-0.228ZM0.129,-0.228C0.129,-0.363 0.16,-0.43 0.223,-0.43C0.285,-0.43 0.316,-0.363 0.316,-0.228C0.316,-0.093 0.285,-0.026 0.223,-0.026C0.16,-0.026 0.129,-0.093 0.129,-0.228Z" style="fill:rgb(236,179,101);fill-rule:nonzero;"/>
            </g>
            <g transform="matrix(17.2145,0,0,17.2145,690.726,848.352)">
                <path d="M0.026,-0.417L0.05,-0.417C0.064,-0.417 0.074,-0.416 0.079,-0.413C0.084,-0.411 0.087,-0.405 0.087,-0.396L0.087,-0.146C0.087,-0.098 0.095,-0.059 0.112,-0.03C0.128,-0 0.16,0.014 0.206,0.014C0.265,0.014 0.306,-0.016 0.329,-0.074L0.333,-0.074L0.333,-0L0.475,-0L0.475,-0.04L0.452,-0.04C0.436,-0.04 0.426,-0.042 0.421,-0.045C0.416,-0.048 0.414,-0.058 0.414,-0.072L0.414,-0.471L0.268,-0.457L0.268,-0.417L0.292,-0.417C0.306,-0.417 0.315,-0.416 0.321,-0.414C0.326,-0.411 0.329,-0.405 0.329,-0.396L0.329,-0.195C0.329,-0.146 0.317,-0.106 0.294,-0.078C0.271,-0.05 0.249,-0.036 0.227,-0.036C0.189,-0.036 0.171,-0.073 0.171,-0.148L0.171,-0.471L0.025,-0.457L0.026,-0.417Z" style="fill:rgb(236,179,101);fill-rule:nonzero;"/>
            </g>
        </g>
        <g transform="matrix(3.73718,-0.759221,0.0916095,0.450937,465.295,549.272)">
            <path d="M300.455,977.269C297.66,972.563 296.029,975.426 293.931,981.263C289.79,992.787 282.569,1018.84 256.603,1005.22C254.203,1003.96 251.426,1008.22 247.285,1015.47C243.272,1022.5 238.849,1030.83 234.805,1035.25C232.274,1038.01 230.007,1043.74 228.022,1041.58C226.416,1039.84 224.979,1031.66 224.182,1023.46C223.717,1018.69 222.906,1014.02 221.763,1010.32C220.49,1006.19 218.727,1002.79 216.691,1000.03C209.439,990.202 198.323,993.191 195.564,985.014C192.351,975.489 186.475,960.613 182.394,953.447C181.036,951.062 171.195,924.517 164.456,915.011L162.734,912.582L162.148,941.123L163.87,943.552C170.558,952.986 180.322,979.403 181.67,981.77C185.611,988.689 191.401,998.326 194.504,1007.52C197.345,1015.94 208.66,1018.48 216.127,1028.6C217.877,1030.97 219.396,1033.73 220.49,1037.28C220.927,1038.69 221.285,1039.81 221.462,1041.63C223.32,1060.73 226.843,1068.22 231.207,1066.93C236.477,1065.37 243.057,1052.15 248.67,1042.37C252.16,1036.28 255.246,1031.42 257.308,1032.5C278.609,1043.67 287.15,1029.63 291.918,1017.44C292.32,1016.41 292.696,1015.39 293.05,1014.41C295.677,1007.09 296.926,1000.87 299.76,1005.64L301.471,1008.52L302.167,980.151L300.455,977.269Z" style="fill:rgb(236,179,101);"/>
        </g>
        <g transform="matrix(1.32203,0,0,2.2956,886.759,-834.953)">
            <path d="M705.076,478.52C701.054,478.52 697.198,479.982 694.182,482.194C690.708,484.741 688.297,487.858 688.297,492.492C688.297,497.126 690.708,501.211 694.182,503.759C697.198,505.97 701.054,507.134 705.076,507.134C709.099,507.134 712.955,505.97 715.97,503.759C719.444,501.211 721.855,497.126 721.855,492.492C721.855,487.858 719.444,484.741 715.97,482.194C712.955,479.982 709.099,478.52 705.076,478.52ZM705.042,482.889C707.345,482.87 709.217,483.816 710.118,484.959C711.918,487.241 711.778,489.821 711.778,492.492C711.778,495.163 710.762,497.592 709.01,499.344C707.923,500.432 706.734,501.331 705.076,501.331C703.418,501.331 702.23,500.432 701.142,499.344C699.39,497.592 698.374,495.163 698.374,492.492C698.374,489.821 697.797,486.812 699.549,485.06C700.636,483.972 702.562,482.91 705.042,482.889Z" style="fill:rgb(236,179,101);"/>
        </g>
        <g transform="matrix(2.81157,-0.00938032,-0.010898,2.47012,-236.956,-1013.45)">
            <path d="M741.086,579.18L741.086,579.18ZM741.086,579.18L741.086,579.18Z" style="fill:rgb(236,179,101);"/>
        </g>
        <g transform="matrix(2.81157,-0.00938032,-0.010898,2.47012,-236.956,-1013.45)">
            <path d="M741.086,579.18L741.086,579.18ZM741.086,579.18L741.086,579.18Z" style="fill:rgb(236,179,101);"/>
        </g>
        <g transform="matrix(2.87176,0,0,2.47182,1528.46,-2458.29)">
            <path d="M57.777,1222.93L63.872,1222.93C63.872,1222.93 69.522,1223.2 72.703,1218.87C75.951,1214.45 75.712,1207.9 75.712,1207.9L75.712,1143.68L71.073,1143.68L71.073,1204.96C71.073,1204.96 71.282,1212.68 70.184,1214.93C69.205,1216.93 67.077,1218.44 64.486,1218.44C61.895,1218.44 57.777,1218.44 57.777,1218.44L57.777,1222.93Z" style="fill:rgb(236,179,101);"/>
        </g>
        <g transform="matrix(2.87176,0,0,2.47182,1520.54,-2546.14)">
            <path d="M149.333,1253.88C149.333,1253.88 142.742,1254 137.941,1253.53C134.768,1253.22 134.318,1250.04 133.967,1240.7C133.163,1219.33 133.998,1179.44 133.998,1179.44L129.328,1179.41L129.328,1245.45C129.328,1245.45 129.17,1249.88 131.395,1253.88C134.067,1258.7 137.914,1258.47 137.914,1258.47L149.333,1258.37L149.333,1253.88Z" style="fill:rgb(236,179,101);"/>
        </g>
        <g transform="matrix(3.4245,0,0,2.57098,1438.04,-2573.82)">
            <path d="M145.994,1232.53C145.994,1232.53 145.75,1235.15 144.789,1235.81C143.759,1236.52 141.485,1236.51 139.817,1236.77C137.842,1237.07 132.94,1237.62 132.94,1237.62L132.72,1264.48C132.72,1264.48 132.791,1284.48 133.638,1289.94C134.901,1298.08 144.742,1312.83 144.742,1312.83L147.942,1309.89C147.942,1309.89 138.48,1296.9 137.242,1289.25C135.396,1277.85 136.867,1241.47 136.867,1241.47C136.867,1241.47 139.829,1241.11 142.851,1240.73C146.002,1240.34 146.751,1240.13 147.716,1238.65C149.231,1236.31 149.202,1232.51 149.202,1232.51L145.994,1232.53Z" style="fill:rgb(236,179,101);"/>
        </g>
        <g transform="matrix(2.87176,0,0,2.47182,-5418.03,-5677.68)">
            <path d="M2510.22,2505.76C2508.81,2503.91 2506.81,2500.15 2504.7,2492.14C2501.18,2478.79 2501.68,2443.45 2501.68,2443.45L2497.05,2443.65C2497.05,2443.65 2497.84,2481.17 2501.02,2494.99C2503.41,2505.4 2506.04,2509.61 2507.76,2511.86C2509.26,2513.82 2509.65,2513.99 2510.23,2514.49C2511.01,2515.16 2512.09,2515.2 2513.02,2514.68C2514.22,2514.01 2514.24,2511.52 2514.24,2510.24L2514.24,2433.52L2509.6,2433.52L2510.22,2505.76Z" style="fill:rgb(236,179,101);"/>
        </g>
        <g transform="matrix(2.87176,0,0,2.47182,1519.99,-2460.17)">
            <path d="M80.673,1223.66C80.673,1223.66 84.951,1223.72 85.193,1223.7C91.6,1223.15 107.97,1225.39 119.155,1201.76C125.768,1187.79 127.527,1147.56 127.654,1139.88L122.468,1139.75C122.346,1147.12 122.022,1186.48 115.677,1199.88C105.766,1220.82 90.53,1218.74 84.852,1219.22C84.647,1219.24 82.37,1219.17 82.37,1219.17C82.37,1219.17 81.952,1220.89 81.644,1221.63C81.125,1222.87 80.673,1223.66 80.673,1223.66Z" style="fill:rgb(236,179,101);"/>
        </g>
        <g transform="matrix(1.51109,-0.712669,-0.877975,1.07785,2736.97,-809.824)">
            <path d="M116.444,1201.44C116.444,1201.44 106.132,1184.47 96.52,1172.4C80.319,1152.04 66.804,1143.32 62.183,1143.31C57.696,1143.3 59.209,1150.78 63.434,1160.59C68.426,1172.19 76.806,1186.5 77.904,1188.36C77.879,1188.31 111.135,1245.77 111.135,1245.77C121.616,1263.93 134.095,1285.39 145.479,1301.33C156.787,1317.17 167.44,1328.81 176.357,1333.67C182.609,1337.08 183.726,1333.81 182.13,1327.83C180.245,1320.77 174.581,1310.14 174.581,1310.14L160.805,1299.87C160.805,1299.87 165.141,1308.12 166.347,1312.64C166.814,1314.39 166.942,1316.58 163.553,1314.24C161.814,1313.04 160.466,1311.31 158.829,1309.25C156.293,1306.05 153.416,1301.78 150.742,1297.75C142.133,1284.77 133.307,1268.85 125.536,1255.39C125.518,1255.36 92.18,1197.75 92.18,1197.75L91.96,1197.38C91.96,1197.38 82.708,1181.82 78.495,1172.04C76.343,1167.04 75.293,1163.18 77.58,1163.18C79.216,1163.19 85.019,1167.31 90.753,1174.51C96.654,1181.93 103.519,1192.93 103.519,1192.93L116.444,1201.44Z" style="fill:rgb(236,179,101);"/>
        </g>
        <g transform="matrix(2.47993,0,0,2.47182,-4419.21,-5677.68)">
            <path d="M2546.66,2507.15C2544.82,2507.73 2543.01,2508.15 2541.74,2507.46C2540.42,2506.73 2539.1,2505.75 2538.4,2503.84C2536.66,2499.11 2537.17,2493.44 2538.68,2483.93L2534.52,2480.8C2532.87,2491.26 2532.84,2500.51 2534.75,2505.72C2535.88,2508.78 2538.53,2511.21 2540.85,2511.89C2543.65,2512.72 2546.49,2512.33 2548.03,2511.48L2546.66,2507.15Z" style="fill:rgb(236,179,101);"/>
        </g>
        <g transform="matrix(2.81157,-0.00938032,-0.010898,2.47012,-236.956,-1013.45)">
            <path d="M741.086,579.18L741.086,579.18ZM741.086,579.18L741.086,579.18Z" style="fill:rgb(236,179,101);"/>
        </g>
        <g transform="matrix(2.81157,-0.00938032,-0.010898,2.47012,-236.956,-1013.45)">
            <path d="M741.086,579.18L741.086,579.18ZM741.086,579.18L741.086,579.18Z" style="fill:rgb(236,179,101);"/>
        </g>
        <g transform="matrix(3.63071e-15,14.3981,-26.531,-0.0795748,15078.1,-11044.6)">
            <path d="M795.48,496.505C792.508,496.505 790.244,497.949 790.244,499.747C790.244,501.545 792.508,503.016 795.48,503.016L795.48,496.505Z" style="fill:rgb(236,179,101);"/>
        </g>
    </g>
    <defs>
        <linearGradient id="_Linear1" x1="0" y1="0" x2="1" y2="-0.0305374" gradientUnits="userSpaceOnUse" gradientTransform="matrix(-14.2666,-568.041,830.456,-9.75851,700.559,639.673)"><stop offset="0" style="stop-color:white;stop-opacity:0"/><stop offset="1" style="stop-color:rgb(236,179,101);stop-opacity:0.3"/></linearGradient>
    </defs>
</svg>
